<!DOCTYPE svg PUBLIC "-//W3C//DTD SVG 20010904//EN" "http://www.w3.org/TR/2001/REC-SVG-20010904/DTD/svg10.dtd">
<svg version="1.0" xmlns="http://www.w3.org/2000/svg" width="1300px" height="315px" viewBox="0 0 13000 3150" preserveAspectRatio="xMidYMid meet">
<g id="layer101" fill="#2f153b" stroke="none">
 <path d="M755 2284 c-176 -102 -329 -194 -340 -205 -19 -19 -20 -35 -23 -435 -2 -277 1 -428 8 -455 20 -72 74 -112 436 -322 251 -145 349 -197 373 -197 29 0 713 174 733 186 17 11 8 59 -14 73 -13 8 -169 97 -348 198 -257 145 -333 183 -361 183 -21 0 -159 -32 -309 -70 -150 -39 -285 -70 -300 -70 -55 0 -84 56 -53 99 12 15 135 91 294 181 237 134 276 160 291 190 16 31 18 73 18 413 0 242 -4 385 -10 398 -23 42 -63 25 -395 -167z"/>
 <path d="M1297 2463 c-4 -3 -7 -190 -7 -415 l0 -409 23 -22 c12 -12 145 -92 295 -176 200 -113 272 -158 272 -172 0 -12 -30 -35 -96 -72 l-96 -55 68 -40 69 -40 78 41 c43 23 92 54 110 68 l32 27 3 425 3 425 -23 26 c-13 14 -168 109 -345 211 -305 175 -363 202 -386 178z"/>
 <path d="M4455 2234 c-229 -51 -402 -224 -450 -451 -22 -102 -19 -293 5 -387 76 -297 319 -470 639 -453 293 14 491 171 567 447 25 90 25 318 1 410 -55 209 -188 354 -381 416 -104 34 -275 42 -381 18z m268 -260 c108 -37 187 -151 209 -301 22 -152 -22 -314 -107 -392 -66 -61 -99 -74 -198 -79 -83 -4 -91 -3 -152 27 -91 45 -149 125 -175 242 -14 63 -9 233 9 289 31 101 118 194 205 219 50 15 159 12 209 -5z"/>
 <path d="M10485 2234 c-225 -49 -386 -205 -446 -431 -28 -102 -30 -296 -5 -398 56 -230 229 -403 453 -450 37 -8 106 -15 153 -15 306 0 533 172 607 460 23 91 22 301 -2 395 -54 211 -188 360 -380 421 -103 33 -275 41 -380 18z m291 -273 c104 -49 161 -138 185 -290 12 -83 0 -191 -32 -277 -29 -76 -105 -154 -173 -177 -57 -20 -168 -22 -217 -5 -141 48 -223 191 -222 388 2 192 80 328 218 378 17 6 64 11 105 11 63 1 85 -4 136 -28z"/>
 <path d="M9050 2234 c-14 -2 -62 -9 -107 -15 l-83 -11 0 -613 0 -612 108 -13 c152 -19 418 -17 512 4 209 45 310 154 310 336 0 82 -33 156 -92 202 l-39 32 44 22 c105 54 152 152 145 303 -7 145 -66 240 -188 301 -102 51 -167 62 -385 65 -110 2 -211 2 -225 -1z m364 -248 c71 -17 105 -40 130 -90 38 -77 -5 -170 -92 -197 -20 -6 -99 -14 -174 -16 l-138 -5 0 154 c0 85 3 158 7 161 12 12 207 7 267 -7z m19 -554 c82 -37 104 -127 44 -187 -42 -42 -110 -57 -238 -53 l-94 3 -3 134 -3 134 124 -5 c94 -4 135 -11 170 -26z"/>
 <path d="M2680 1595 l0 -625 119 0 120 0 49 53 c103 108 284 343 431 556 l71 104 0 -356 0 -357 145 0 145 0 0 625 0 625 -123 0 -122 0 -60 -102 c-87 -151 -280 -436 -387 -572 l-93 -120 -3 397 -2 397 -145 0 -145 0 0 -625z"/>
 <path d="M5730 1720 l0 -500 -190 0 -190 0 0 -125 0 -125 525 0 525 0 0 125 0 125 -190 0 -190 0 0 500 0 500 -145 0 -145 0 0 -500z"/>
 <path d="M6570 1595 l0 -625 425 0 425 0 0 120 0 120 -280 0 -280 0 0 120 0 120 250 0 250 0 0 120 0 120 -250 0 -250 0 0 145 0 145 300 0 300 0 0 120 0 120 -445 0 -445 0 0 -625z"/>
 <path d="M7660 1601 l0 -619 103 -13 c145 -18 403 -16 497 5 110 25 202 70 256 128 66 70 86 124 92 239 9 182 -39 269 -203 364 -16 10 -13 17 33 80 67 93 149 229 206 343 l46 92 -164 0 -165 0 -52 -92 c-67 -119 -142 -239 -191 -305 l-39 -53 -64 0 -65 0 0 225 0 225 -145 0 -145 0 0 -619z m539 -87 c53 -15 96 -56 107 -100 12 -48 -2 -114 -31 -144 -46 -48 -182 -79 -280 -65 l-45 7 0 166 0 165 100 -7 c54 -4 122 -13 149 -22z"/>
 <path d="M11381 2183 c96 -159 160 -257 267 -406 68 -95 126 -177 128 -183 3 -6 -82 -143 -189 -305 -106 -162 -197 -300 -201 -306 -6 -10 31 -13 171 -13 l178 0 114 176 c63 96 117 172 121 167 4 -4 58 -83 119 -175 l111 -168 165 0 c91 0 165 3 164 8 0 4 -89 140 -198 302 l-199 294 74 98 c114 149 344 512 344 541 0 4 -78 7 -173 7 l-173 0 -39 -72 c-92 -173 -195 -315 -217 -302 -21 13 -158 206 -204 288 l-49 86 -168 0 -169 0 23 -37z"/>
 </g>
<g id="layer102" fill="#fcfcfc" stroke="none">
 <path d="M1508 2084 c-15 -14 -8 -43 12 -49 19 -6 20 -15 20 -135 0 -121 -1 -129 -21 -135 -14 -5 -19 -14 -17 -28 3 -20 10 -22 88 -25 116 -4 183 5 222 31 27 19 34 30 36 65 3 35 -1 46 -24 67 -19 18 -22 25 -11 25 8 0 25 12 36 26 37 47 22 107 -32 140 -26 15 -57 19 -167 22 -74 2 -138 1 -142 -4z m242 -67 c18 -9 25 -21 25 -42 0 -37 -31 -55 -97 -55 l-48 0 0 55 0 55 48 0 c26 0 58 -6 72 -13z m-16 -157 c18 -6 26 -17 26 -34 0 -33 -22 -48 -80 -54 l-50 -5 0 52 0 51 39 0 c22 0 51 -4 65 -10z"/>
 <path d="M795 1950 l-80 -111 -7 38 c-4 21 -7 57 -7 80 -1 37 2 43 24 49 16 4 25 13 25 25 0 17 -8 19 -91 19 -88 0 -90 -1 -87 -22 2 -15 11 -24 26 -26 21 -3 22 -7 22 -123 0 -112 -1 -119 -20 -119 -15 0 -20 -7 -20 -25 0 -24 2 -25 63 -25 l64 0 78 110 c43 61 80 110 82 110 1 0 3 -38 3 -85 0 -78 -2 -85 -20 -85 -15 0 -20 -7 -20 -26 0 -25 2 -26 38 -20 20 3 61 6 90 6 44 0 52 3 52 19 0 12 -9 21 -25 25 -24 6 -24 6 -27 149 l-3 142 -40 3 -41 3 -79 -111z"/>
 </g>

</svg>